<svg width="29" height="29" viewBox="0 0 29 29" fill="none" xmlns="http://www.w3.org/2000/svg">
<path d="M26.5293 1.55493C24.5112 -0.46167 21.2392 -0.46167 19.2212 1.55493L14.9491 5.7848C14.8845 5.84856 14.7991 5.88687 14.7083 5.89201L13.5066 5.9622C13.3386 5.97196 13.1744 5.91026 13.0548 5.792L9.40718 2.25678L6.36723 10.1977C6.36723 10.1977 7.89621 9.95066 8.94718 8.99738C9.94617 8.09114 10.664 6.91034 11.6179 7.3096C11.973 7.45819 12.1502 7.86593 12.2346 8.30941C12.258 8.43281 12.2202 8.55982 12.1315 8.64877L1.55981 19.2269C-0.45825 21.2435 -0.45825 24.5132 1.55981 26.5298C3.57787 28.5464 6.84988 28.5464 8.86794 26.5298L13.1091 22.2917C13.1582 22.2426 13.2236 22.2133 13.2931 22.2091L14.5277 22.1372C14.6957 22.1274 14.8598 22.1891 14.9795 22.3074L18.4905 25.7742L21.6503 17.8093C21.6503 17.8093 20.1378 18.1487 19.0871 19.102C18.0881 20.0082 17.3703 21.189 16.4164 20.7898C16.0549 20.6386 15.8774 20.2183 15.795 19.7655C15.7791 19.6776 15.8069 19.5871 15.8699 19.5239L26.5295 8.85778C28.5476 6.84118 28.5476 3.57153 26.5295 1.55493H26.5293Z" fill="url(#paint0_linear_1131_3452)"/>
<path d="M22.8338 10.3247C25.6869 10.3247 27.9999 8.01341 27.9999 5.16233C27.9999 2.31126 25.6869 0 22.8338 0C19.9806 0 17.6677 2.31126 17.6677 5.16233C17.6677 8.01341 19.9806 10.3247 22.8338 10.3247Z" fill="#ADFF00"/>
<path d="M5.16606 10.3671C8.0192 10.3671 10.3321 8.05589 10.3321 5.20481C10.3321 2.35374 8.0192 0.0424805 5.16606 0.0424805C2.31293 0.0424805 0 2.35374 0 5.20481C0 8.05589 2.31293 10.3671 5.16606 10.3671Z" fill="#ADFF00"/>
<path d="M22.7732 28.0119C25.6264 28.0119 27.9393 25.7007 27.9393 22.8496C27.9393 19.9985 25.6264 17.6873 22.7732 17.6873C19.9201 17.6873 17.6072 19.9985 17.6072 22.8496C17.6072 25.7007 19.9201 28.0119 22.7732 28.0119Z" fill="#ADFF00"/>
<path d="M5.21208 28.0427C8.06522 28.0427 10.3781 25.7314 10.3781 22.8804C10.3781 20.0293 8.06522 17.718 5.21208 17.718C2.35895 17.718 0.0460205 20.0293 0.0460205 22.8804C0.0460205 25.7314 2.35895 28.0427 5.21208 28.0427Z" fill="#ADFF00"/>
<defs>
<linearGradient id="paint0_linear_1131_3452" x1="5.24833" y1="23.1933" x2="24.6838" y2="3.2549" gradientUnits="userSpaceOnUse">
<stop stop-color="#80BF00"/>
<stop offset="0.10463" stop-color="#7AB600"/>
<stop offset="0.58" stop-color="#314900"/>
<stop offset="0.777816" stop-color="#151E00"/>
</linearGradient>
</defs>
</svg>
