<svg width="144" height="29" viewBox="0 0 144 29" fill="none" xmlns="http://www.w3.org/2000/svg">
<path d="M143.395 13.1741C143.395 14.6505 143.397 16.1268 143.394 17.6032C143.393 18.1967 143.277 18.7605 142.913 19.249C142.488 19.8198 141.889 20.0422 141.207 20.0425C140.503 20.0425 139.832 19.8995 139.273 19.4243C139.15 19.3199 139.04 19.2037 138.935 19.082C136.883 16.704 134.83 14.3269 132.777 11.9497C132.725 11.8891 132.675 11.8236 132.612 11.7753C132.427 11.6325 132.202 11.7125 132.152 11.9422C132.132 12.0388 132.141 12.142 132.141 12.2422C132.141 14.6526 132.141 17.0629 132.14 19.4735C132.14 19.8653 132.178 19.8047 131.803 19.8059C130.99 19.8089 130.177 19.8074 129.364 19.8065C129.113 19.8065 129.11 19.8044 129.11 19.5716C129.109 16.6089 129.109 13.6462 129.109 10.6834C129.109 10.2584 129.165 9.84157 129.324 9.44553C129.621 8.70266 130.19 8.28549 130.958 8.12732C131.514 8.01292 132.075 8.01624 132.632 8.12551C133.214 8.23961 133.698 8.53664 134.079 8.98399C134.938 9.9925 135.786 11.0104 136.636 12.027C137.685 13.2824 138.731 14.5403 139.779 15.7966C139.817 15.8428 139.857 15.8884 139.898 15.9321C139.991 16.0318 140.109 16.0478 140.229 16.0028C140.334 15.9629 140.366 15.8627 140.373 15.758C140.377 15.678 140.374 15.5974 140.374 15.5171C140.374 13.2372 140.374 10.9575 140.374 8.67761C140.374 8.60727 140.38 8.53634 140.373 8.46691C140.356 8.32806 140.423 8.30149 140.547 8.3021C141.431 8.30632 142.314 8.30813 143.197 8.30089C143.356 8.29968 143.4 8.34798 143.399 8.50434C143.393 9.47843 143.396 10.4528 143.396 11.4269C143.396 12.0095 143.396 12.5921 143.396 13.1744L143.395 13.1741Z" fill="white"/>
<path d="M106.654 14.0458V19.4381C106.654 19.5085 106.651 19.5788 106.654 19.6488C106.66 19.7584 106.626 19.8094 106.502 19.8088C105.568 19.8043 104.635 19.8052 103.702 19.8079C103.598 19.8079 103.556 19.769 103.561 19.6675C103.565 19.5975 103.561 19.5269 103.561 19.4569C103.561 18.2017 103.561 16.9466 103.561 15.6912C103.561 15.6208 103.561 15.5505 103.56 15.4802C103.559 15.4077 103.523 15.3697 103.45 15.3691C103.39 15.3685 103.329 15.3682 103.269 15.3682C101.192 15.3682 99.1142 15.3682 97.037 15.3682C96.9867 15.3682 96.9364 15.3721 96.8866 15.3676C96.7631 15.3561 96.7294 15.4225 96.7339 15.5306C96.7369 15.6006 96.7342 15.6713 96.7342 15.7413C96.7342 16.9765 96.7342 18.2114 96.7342 19.4466C96.7342 19.507 96.7288 19.5676 96.7351 19.6271C96.7508 19.7786 96.6764 19.8158 96.539 19.8088C96.3588 19.7995 96.1778 19.8064 95.9973 19.8064C95.305 19.8064 94.6124 19.8064 93.92 19.8064C93.6079 19.8064 93.6329 19.8345 93.6329 19.5112C93.6329 16.4887 93.6329 13.4662 93.6329 10.4437C93.6329 9.80104 93.6317 9.15839 93.6335 8.51573C93.6341 8.30866 93.6377 8.30473 93.8492 8.30443C94.7425 8.30292 95.6355 8.30292 96.5287 8.30443C96.73 8.30473 96.7336 8.30926 96.7339 8.5263C96.7354 9.69116 96.7345 10.856 96.7345 12.0206C96.7345 12.0707 96.7345 12.1211 96.7345 12.1712C96.736 12.4984 96.7092 12.4619 97.0231 12.4619C99.1004 12.4625 101.178 12.4622 103.255 12.4622C103.285 12.4622 103.315 12.4628 103.346 12.4622C103.557 12.4574 103.56 12.4574 103.561 12.2497C103.563 11.6572 103.562 11.0649 103.562 10.4724C103.562 9.81975 103.56 9.16684 103.562 8.51422C103.563 8.30745 103.566 8.30443 103.777 8.30413C104.65 8.30292 105.523 8.30322 106.396 8.30383C106.671 8.30383 106.653 8.27243 106.653 8.56282C106.653 10.3903 106.653 12.218 106.653 14.0455L106.654 14.0458Z" fill="white"/>
<path d="M73.2298 19.8062C71.7777 19.8062 70.3734 19.8056 68.9695 19.8074C68.8836 19.8074 68.8201 19.7884 68.7631 19.7168C68.3694 19.2209 67.9039 18.7911 67.4704 18.3319C66.6579 17.4713 65.8336 16.6213 65.0138 15.7673C64.9864 15.739 64.9551 15.7145 64.9298 15.6922C64.8529 15.6949 64.818 15.7492 64.7764 15.7903C63.5481 17.0032 62.3096 18.2064 61.1009 19.4382C60.8313 19.7129 60.5764 19.8249 60.1953 19.8153C59.1424 19.7884 58.0879 19.8059 57.0344 19.8059H56.7443C56.7346 19.7866 56.725 19.7676 56.7153 19.7482C57.3549 19.0371 58.0732 18.4026 58.7495 17.7276C59.4385 17.0403 60.1435 16.369 60.8406 15.6901C61.5293 15.0193 62.2174 14.3474 62.9215 13.661C61.1103 11.8849 59.2843 10.1453 57.4929 8.37547C57.5712 8.26981 57.6472 8.30543 57.7101 8.30543C58.9848 8.30302 60.2592 8.30604 61.5339 8.30091C61.6965 8.3003 61.8113 8.3323 61.9104 8.479C62.0216 8.64351 62.1683 8.78569 62.3087 8.92877C63.2149 9.85336 64.1233 10.7758 65.0316 11.6983C65.0449 11.7119 65.065 11.7188 65.1054 11.7427C65.3594 11.5027 65.6203 11.2591 65.8776 11.0119C66.6946 10.2259 67.5294 9.45672 68.3155 8.6411C68.5739 8.37305 68.8186 8.29245 69.1659 8.29759C70.2993 8.31449 71.4333 8.30392 72.5854 8.30392C72.5703 8.43161 72.4826 8.50194 72.4097 8.57288C71.4658 9.48751 70.5189 10.3988 69.5739 11.3122C68.7737 12.0859 67.9747 12.8611 67.1766 13.6341C67.2056 13.7473 67.2981 13.7998 67.3671 13.8687C68.9008 15.4009 70.4358 16.9322 71.9717 18.4626C72.2772 18.7672 72.5869 19.0679 72.8942 19.3706C73.0141 19.4886 73.1304 19.61 73.2307 19.8065L73.2298 19.8062Z" fill="white"/>
<path d="M88.8163 19.7915C87.7926 19.7915 86.7683 19.8181 85.7458 19.7849C84.4873 19.7441 83.3106 19.4042 82.2974 18.6245C80.9324 17.5741 80.193 16.1774 80.0752 14.4598C79.9617 12.8029 80.4759 11.3564 81.5918 10.1306C82.4462 9.19181 83.5212 8.64877 84.7621 8.42267C85.2468 8.33423 85.7358 8.30042 86.229 8.30193C88.096 8.30676 89.9629 8.30405 91.8302 8.30405C91.9107 8.30405 91.9908 8.30435 92.0712 8.30465C92.1435 8.30465 92.1824 8.33816 92.1803 8.41362C92.1791 8.45377 92.1803 8.49391 92.1803 8.53406C92.1803 9.39767 92.1812 10.2616 92.1797 11.1252C92.1794 11.3649 92.1764 11.3676 91.9299 11.3679C89.9425 11.3688 87.955 11.3655 85.9675 11.3697C85.2086 11.3712 84.5172 11.5819 83.9686 12.1295C83.2172 12.8796 82.959 13.7867 83.2546 14.8073C83.5507 15.83 84.2581 16.4448 85.2963 16.677C85.5819 16.741 85.872 16.7548 86.1636 16.7548C88.0607 16.7539 89.9578 16.7542 91.8552 16.7548C92.2186 16.7548 92.1794 16.7219 92.18 17.0748C92.1812 17.9085 92.1812 18.742 92.18 19.5757C92.1797 19.8021 92.1764 19.8057 91.9483 19.806C90.9044 19.8075 89.8605 19.8066 88.8166 19.8066C88.8166 19.8018 88.8166 19.7967 88.8166 19.7918L88.8163 19.7915Z" fill="white"/>
<path d="M52.4651 14.0582C52.4651 12.2619 52.4651 10.4652 52.4651 8.66886C52.4651 8.59852 52.4702 8.52789 52.4642 8.45816C52.4539 8.33983 52.5051 8.29848 52.6205 8.3021C52.8109 8.30814 53.0016 8.30361 53.1923 8.30361C53.8946 8.30361 54.5966 8.30361 55.2988 8.30361C55.6007 8.30361 55.567 8.28399 55.567 8.58373C55.5676 10.8419 55.567 13.1001 55.567 15.358C55.567 16.723 55.567 18.0877 55.567 19.4527C55.567 19.5128 55.5624 19.5735 55.5679 19.6332C55.5796 19.7606 55.5311 19.811 55.3982 19.8083C55.0373 19.8014 54.6761 19.8059 54.3149 19.8059C53.7934 19.8059 53.2716 19.8071 52.7501 19.8053C52.4705 19.8044 52.4642 19.8596 52.4642 19.5073C52.4648 17.9317 52.4645 16.356 52.4645 14.7803C52.4645 14.5394 52.4645 14.2985 52.4645 14.0576L52.4651 14.0582Z" fill="white"/>
<path d="M127.438 14.027V19.4206C127.438 19.4707 127.438 19.5211 127.438 19.5712C127.434 19.8024 127.434 19.8045 127.213 19.8061C126.882 19.8082 126.551 19.8067 126.219 19.8067C125.667 19.8067 125.115 19.8079 124.563 19.8061C124.351 19.8055 124.347 19.8021 124.346 19.5939C124.345 18.7302 124.346 17.8663 124.346 17.0027C124.346 14.2105 124.345 11.4183 124.346 8.62617C124.346 8.25126 124.302 8.3065 124.661 8.30529C125.494 8.30258 126.327 8.30378 127.16 8.30469C127.459 8.30499 127.437 8.26605 127.437 8.57364C127.437 10.3914 127.437 12.2095 127.437 14.0273L127.438 14.027Z" fill="white"/>
<path d="M122.868 19.1232C122.068 17.3628 121.267 15.6023 120.465 13.8431C119.866 12.5306 119.286 11.2088 118.658 9.91052C118.083 8.7221 117.092 8.12322 115.779 8.05742C115.153 8.02602 114.535 8.07009 113.946 8.30856C113.098 8.65177 112.547 9.29201 112.176 10.1055C111.785 10.9622 111.398 11.821 111.011 12.6795C110.03 14.8528 109.049 17.0262 108.07 19.2002C107.985 19.3894 107.884 19.5748 107.864 19.8072C109.01 19.8072 110.142 19.8057 111.276 19.8099C111.382 19.8102 111.411 19.7595 111.437 19.6762C111.595 19.1679 111.849 18.6985 112.041 18.204C112.099 18.0552 112.182 18.0157 112.333 18.0178C112.945 18.0256 113.557 18.0211 114.17 18.0211C115.665 18.0211 117.16 18.0211 118.655 18.0211C118.785 18.0211 118.904 18.0036 118.972 18.1708C119.169 18.6535 119.395 19.1238 119.584 19.6092C119.648 19.7734 119.722 19.8178 119.886 19.8117C120.237 19.7991 120.588 19.8078 120.94 19.8078H123.109C123.07 19.5364 122.962 19.3321 122.868 19.1244V19.1232ZM113.297 15.4704C113.255 15.3762 113.322 15.3113 113.351 15.2428C113.881 13.9886 114.415 12.7359 114.948 11.4829C114.96 11.4551 114.971 11.427 114.983 11.3996C115.083 11.1714 115.239 11.0111 115.505 11.0186C115.763 11.0259 115.928 11.1693 116.028 11.4038C116.535 12.5922 117.045 13.7794 117.553 14.9672C117.619 15.1218 117.683 15.2772 117.763 15.4704H113.297H113.297Z" fill="white"/>
<path d="M51.0322 19.1989C50.0332 17.0008 49.0324 14.8033 48.0309 12.606C47.6281 11.7219 47.2386 10.8308 46.8147 9.95693C46.3574 9.01333 45.6289 8.38154 44.5859 8.14579C44.1006 8.03621 43.6089 8.02686 43.119 8.06851C42.0091 8.16239 41.1388 8.66468 40.5546 9.63123C40.4091 9.87211 40.291 10.1263 40.1756 10.3823C38.8449 13.3317 37.5127 16.2808 36.1832 19.2309C36.1024 19.4099 36.0036 19.5856 36 19.8071H36.2805C37.2641 19.8071 38.2475 19.8071 39.2311 19.8071C39.2914 19.8071 39.3516 19.8041 39.4116 19.8077C39.4944 19.8126 39.5315 19.7788 39.5568 19.6964C39.7071 19.2067 39.9557 18.7561 40.1346 18.2782C40.21 18.0772 40.3163 18.0144 40.5311 18.0156C42.468 18.025 44.4048 18.0211 46.3417 18.0211C46.5122 18.0211 46.6834 18.0283 46.8533 18.0186C46.9846 18.0111 47.05 18.0633 47.1006 18.1828C47.3028 18.6631 47.5269 19.1343 47.7164 19.6194C47.7764 19.7724 47.8451 19.8111 47.9948 19.8102C49.0284 19.8047 50.0621 19.8074 51.0958 19.8068C51.1352 19.8068 51.1747 19.8008 51.2334 19.7957C51.2102 19.5768 51.1175 19.3882 51.0316 19.1995L51.0322 19.1989ZM41.4355 15.4688C41.3747 15.3922 41.4425 15.3354 41.4666 15.2781C42.0079 13.9961 42.5568 12.7168 43.0931 11.4327C43.2694 11.0107 43.6321 10.934 43.912 11.097C44.0509 11.1779 44.1147 11.3141 44.1744 11.4532C44.5452 12.319 44.9158 13.1844 45.287 14.0498C45.4837 14.5086 45.6813 14.9669 45.8973 15.4685H41.4355V15.4688Z" fill="white"/>
<path d="M26.5293 1.55499C24.5112 -0.461614 21.2392 -0.461614 19.2212 1.55499L14.9491 5.78486C14.8845 5.84862 14.7991 5.88692 14.7083 5.89207L13.5066 5.96225C13.3386 5.97202 13.1744 5.91032 13.0548 5.79206L9.40718 2.25684L6.36723 10.1978C6.36723 10.1978 7.89621 9.95072 8.94718 8.99744C9.94617 8.0912 10.664 6.91039 11.6179 7.30965C11.973 7.45825 12.1502 7.86599 12.2346 8.30947C12.258 8.43287 12.2202 8.55987 12.1315 8.64882L1.55981 19.227C-0.45825 21.2436 -0.45825 24.5132 1.55981 26.5298C3.57787 28.5464 6.84988 28.5464 8.86794 26.5298L13.1091 22.2917C13.1582 22.2426 13.2236 22.2133 13.2931 22.2092L14.5277 22.1372C14.6957 22.1274 14.8598 22.1891 14.9795 22.3074L18.4905 25.7742L21.6503 17.8094C21.6503 17.8094 20.1378 18.1488 19.0871 19.102C18.0881 20.0083 17.3703 21.1891 16.4164 20.7898C16.0549 20.6387 15.8774 20.2183 15.795 19.7656C15.7791 19.6777 15.8069 19.5872 15.8699 19.5239L26.5295 8.85784C28.5476 6.84124 28.5476 3.57159 26.5295 1.55499H26.5293Z" fill="url(#paint0_linear_771_1304)"/>
<path d="M22.8338 10.3247C25.6869 10.3247 27.9999 8.01341 27.9999 5.16233C27.9999 2.31126 25.6869 0 22.8338 0C19.9806 0 17.6677 2.31126 17.6677 5.16233C17.6677 8.01341 19.9806 10.3247 22.8338 10.3247Z" fill="#ADFF00"/>
<path d="M5.16606 10.3672C8.0192 10.3672 10.3321 8.05595 10.3321 5.20487C10.3321 2.35379 8.0192 0.0425358 5.16606 0.0425358C2.31293 0.0425358 0 2.35379 0 5.20487C0 8.05595 2.31293 10.3672 5.16606 10.3672Z" fill="#ADFF00"/>
<path d="M22.7732 28.0118C25.6264 28.0118 27.9393 25.7006 27.9393 22.8495C27.9393 19.9984 25.6264 17.6871 22.7732 17.6871C19.9201 17.6871 17.6072 19.9984 17.6072 22.8495C17.6072 25.7006 19.9201 28.0118 22.7732 28.0118Z" fill="#ADFF00"/>
<path d="M5.21208 28.0425C8.06522 28.0425 10.3781 25.7313 10.3781 22.8802C10.3781 20.0291 8.06522 17.7179 5.21208 17.7179C2.35895 17.7179 0.0460205 20.0291 0.0460205 22.8802C0.0460205 25.7313 2.35895 28.0425 5.21208 28.0425Z" fill="#ADFF00"/>
<defs>
<linearGradient id="paint0_linear_771_1304" x1="5.24833" y1="23.1933" x2="24.6838" y2="3.25495" gradientUnits="userSpaceOnUse">
<stop stop-color="#80BF00"/>
<stop offset="0.10463" stop-color="#7AB600"/>
<stop offset="0.58" stop-color="#314900"/>
<stop offset="0.777816" stop-color="#151E00"/>
</linearGradient>
</defs>
</svg>
